<svg width="51" height="30" viewBox="0 0 51 30" fill="none" xmlns="http://www.w3.org/2000/svg">
<rect width="51" height="29.5" rx="8" fill="#F4F2FC"/>
<path d="M8 14V8H14V14H8ZM8 21.5V15.5H14V21.5H8ZM15.5 14V8H21.5V14H15.5ZM15.5 21.5V15.5H21.5V21.5H15.5ZM9.5 12.5H12.5V9.5H9.5V12.5ZM17 12.5H20V9.5H17V12.5ZM17 20H20V17H17V20ZM9.5 20H12.5V17H9.5V20Z" fill="#777587"/>
<path d="M31 14C30.5875 14 30.2344 13.8531 29.9406 13.5594C29.6469 13.2656 29.5 12.9125 29.5 12.5V9.5C29.5 9.0875 29.6469 8.73438 29.9406 8.44063C30.2344 8.14688 30.5875 8 31 8H41.5C41.9125 8 42.2656 8.14688 42.5594 8.44063C42.8531 8.73438 43 9.0875 43 9.5V12.5C43 12.9125 42.8531 13.2656 42.5594 13.5594C42.2656 13.8531 41.9125 14 41.5 14H31ZM31 12.5H41.5V9.5H31V12.5ZM31 21.5C30.5875 21.5 30.2344 21.3531 29.9406 21.0594C29.6469 20.7656 29.5 20.4125 29.5 20V17C29.5 16.5875 29.6469 16.2344 29.9406 15.9406C30.2344 15.6469 30.5875 15.5 31 15.5H41.5C41.9125 15.5 42.2656 15.6469 42.5594 15.9406C42.8531 16.2344 43 16.5875 43 17V20C43 20.4125 42.8531 20.7656 42.5594 21.0594C42.2656 21.3531 41.9125 21.5 41.5 21.5H31ZM31 20H41.5V17H31V20ZM31 9.5V12.5V9.5ZM31 17V20V17Z" fill="#777587"/>
</svg>
